<svg width="763" height="394" viewBox="0 0 763 394" xmlns="http://www.w3.org/2000/svg"><mask id="satori_om-id"><rect x="0" y="0" width="763" height="394" fill="#fff"/></mask><rect x="0" y="0" width="763" height="394" fill="#e6e6e6"/><mask id="satori_om-id-0"><rect x="42" y="42" width="92" height="24" fill="#fff"/></mask><mask id="satori_om-id-0-0"><rect x="42" y="42" width="24" height="24" fill="#fff"/></mask><clipPath id="satori_cp-id-0-0-0"><rect x="27" y="27" width="55" height="55"/></clipPath><mask id="satori_om-id-0-0-0"><rect x="27" y="27" width="55" height="55" fill="#fff"/></mask><image x="27" y="27" width="55" height="55" href="data:image/svg+xml;utf8,%3Csvg  xmlns=%22http://www.w3.org/2000/svg%22 width=%2262.333333333333336%22 height=%2255%22 viewBox=%220 -1 170 150%22%3E%3Cg%3E%3Cg%3E%3Cg%3E%3Cpath d=%22M68.942,94.77C69.047,95.18 69.321,95.527 69.696,95.724C73.825,97.892 77.928,99.617 81.931,100.992C82.696,101.252 83.53,100.858 83.816,100.101C86.057,94.016 87.976,85.954 87.89,76.86C87.862,73.942 87.52,71.14 86.962,68.49C86.885,68.127 86.676,67.805 86.375,67.588C81.968,64.406 77.089,61.389 71.708,58.687C71.307,58.487 70.838,58.477 70.428,58.659C70.019,58.841 69.713,59.197 69.593,59.629C68.259,64.592 67.209,70.6 67,77.453C66.83,83.187 67.61,89.498 68.942,94.77Z%22%3E%3C/path%3E%3Cpath d=%22M121.542,109.624C121.669,109.627 121.773,109.725 121.784,109.852C121.795,109.979 121.709,110.093 121.584,110.118C88.354,116.653 56.369,106.656 38.46,83.404C27.215,68.804 23.817,50.916 23.117,41.359C23.063,40.438 23.645,39.6 24.527,39.33C33.784,36.618 52.176,33.086 69.779,38.566C97.892,47.323 118.482,73.071 123.796,106.585C123.812,106.708 123.735,106.825 123.614,106.858C123.494,106.891 123.367,106.83 123.319,106.715C118.889,97.132 102.008,67.539 66.398,52.575C53.059,46.962 45.947,43.574 31.26,44.318C30.732,44.342 30.314,44.773 30.307,45.302C30.366,55.014 35.376,71.156 43.81,80.088C72.644,110.61 107.733,109.44 121.542,109.624Z%22 style=%22fill-rule:nonzero%22%3E%3C/path%3E%3C/g%3E%3C/g%3E%3C/g%3E%3C/svg%3E" preserveAspectRatio="none" clip-path="url(#satori_cp-id-0-0-0)" mask="url(#satori_om-id-0-0-0)"/><mask id="satori_om-id-0-0-0-0"><rect x="27" y="27" width="0" height="55" fill="#fff"/></mask><mask id="satori_om-id-0-0-0-0-0"><rect x="27" y="27" width="0" height="55" fill="#fff"/></mask><mask id="satori_om-id-0-0-0-0-0-0"><rect x="27" y="27" width="0" height="55" fill="#fff"/></mask><mask id="satori_om-id-0-0-0-0-0-0-0"><rect x="27" y="27" width="0" height="55" fill="#fff"/></mask><mask id="satori_om-id-0-0-0-0-0-0-1"><rect x="27" y="27" width="0" height="55" fill="#fff"/></mask><mask id="satori_om-id-0-1"><rect x="74" y="42" width="60" height="24" fill="#fff"/></mask><path fill="black" d="M85.1 61.4L75.3 61.4L75.3 46.8L85.1 46.8L85.1 49.4L78.3 49.4L78.3 52.8L84.6 52.8L84.6 55.4L78.3 55.4L78.3 58.8L85.1 58.8L85.1 61.4ZM89.0 65.5L89.0 65.5Q88.4 65.5 87.9 65.4Q87.4 65.3 87.1 65.2L87.1 65.2L87.8 62.9Q88.3 63.1 88.7 63.1Q89.2 63.1 89.5 62.9Q89.8 62.7 90.0 62.1L90.0 62.1L90.2 61.7L86.3 50.5L89.5 50.5L91.7 58.5L91.8 58.5L94.1 50.5L97.3 50.5L93.1 62.6Q92.8 63.4 92.2 64.1Q91.7 64.7 90.9 65.1Q90.1 65.5 89.0 65.5ZM103.1 61.6L103.1 61.6Q101.5 61.6 100.3 60.9Q99.0 60.2 98.4 59.0Q97.7 57.7 97.7 56.0L97.7 56.0Q97.7 54.3 98.4 53.0Q99.0 51.7 100.2 51.0Q101.4 50.3 103.0 50.3L103.0 50.3Q104.1 50.3 105.0 50.7Q106.0 51.0 106.7 51.7Q107.4 52.4 107.8 53.4Q108.2 54.5 108.2 55.9L108.2 55.9L108.2 56.7L98.9 56.7L98.9 54.8L105.3 54.8Q105.3 54.2 105.0 53.7Q104.7 53.2 104.2 52.9Q103.7 52.6 103.1 52.6L103.1 52.6Q102.4 52.6 101.9 52.9Q101.3 53.2 101.0 53.7Q100.7 54.3 100.7 54.9L100.7 54.9L100.7 56.7Q100.7 57.5 101.0 58.1Q101.3 58.7 101.9 59.0Q102.4 59.3 103.2 59.3L103.2 59.3Q103.7 59.3 104.1 59.2Q104.5 59.0 104.8 58.8Q105.1 58.5 105.3 58.1L105.3 58.1L108.1 58.3Q107.9 59.3 107.2 60.0Q106.6 60.8 105.5 61.2Q104.5 61.6 103.1 61.6ZM113.8 61.6L113.8 61.6Q112.6 61.6 111.6 60.9Q110.6 60.3 110.0 59.0Q109.4 57.8 109.4 55.9L109.4 55.9Q109.4 54.1 110.0 52.8Q110.6 51.6 111.6 50.9Q112.6 50.3 113.8 50.3L113.8 50.3Q114.7 50.3 115.4 50.6Q116.0 50.9 116.3 51.4Q116.7 51.9 116.9 52.3L116.9 52.3L117.0 52.3L117.0 46.8L120.0 46.8L120.0 61.4L117.1 61.4L117.1 59.6L116.9 59.6Q116.7 60.1 116.3 60.5Q115.9 61.0 115.3 61.3Q114.7 61.6 113.8 61.6ZM114.8 59.1L114.8 59.1Q115.5 59.1 116.0 58.7Q116.5 58.3 116.8 57.6Q117.1 56.9 117.1 55.9L117.1 55.9Q117.1 54.9 116.8 54.2Q116.5 53.5 116.0 53.1Q115.5 52.7 114.8 52.7L114.8 52.7Q114.0 52.7 113.5 53.1Q113.0 53.5 112.8 54.3Q112.5 55.0 112.5 55.9L112.5 55.9Q112.5 56.9 112.8 57.6Q113.0 58.3 113.5 58.7Q114.0 59.1 114.8 59.1ZM130.4 52.1L129.7 52.1L127.6 46.8L128.8 46.8L130.1 50.3L131.3 46.8L132.5 46.8L130.4 52.1ZM128.5 52.1L127.2 52.1L127.2 46.8L128.5 46.8L128.5 52.1ZM132.9 52.1L131.6 52.1L131.6 46.8L132.9 46.8L132.9 52.1ZM124.7 52.1L123.4 52.1L123.4 47.3L124.7 47.3L124.7 52.1ZM126.3 47.9L121.8 47.9L121.8 46.8L126.3 46.8L126.3 47.9Z "/><mask id="satori_om-id-1"><rect x="149" y="149" width="466" height="96" fill="#fff"/></mask><rect x="149" y="149" width="466" height="96" fill="#2d273f"/><path fill="#e6e6e6" d="M209.3 187.5L200.4 187.5L200.4 182.5L224.3 182.5L224.3 187.5L215.4 187.5L215.4 211.5L209.3 211.5L209.3 187.5ZM234.6 212.0L234.6 212.0Q231.2 212.0 228.8 210.6Q226.4 209.2 225.1 206.7Q223.8 204.2 223.8 200.7L223.8 200.7Q223.8 197.4 225.1 194.8Q226.4 192.3 228.8 190.9Q231.1 189.4 234.3 189.4L234.3 189.4Q236.5 189.4 238.4 190.1Q240.2 190.8 241.6 192.2Q243.0 193.6 243.8 195.7Q244.6 197.7 244.6 200.5L244.6 200.5L244.6 202.2L226.2 202.2L226.2 198.4L238.9 198.4Q238.9 197.1 238.3 196.1Q237.8 195.1 236.8 194.5Q235.8 194.0 234.4 194.0L234.4 194.0Q233.1 194.0 232.0 194.6Q231.0 195.2 230.4 196.3Q229.8 197.3 229.7 198.6L229.7 198.6L229.7 202.2Q229.7 203.8 230.3 205.0Q231.0 206.2 232.1 206.8Q233.2 207.5 234.7 207.5L234.7 207.5Q235.7 207.5 236.5 207.2Q237.4 206.9 238.0 206.3Q238.6 205.8 238.9 204.9L238.9 204.9L244.5 205.3Q244.0 207.3 242.7 208.8Q241.4 210.3 239.4 211.1Q237.3 212.0 234.6 212.0ZM266.4 195.9L266.4 195.9L260.8 196.3Q260.7 195.6 260.2 195.0Q259.8 194.4 259.0 194.1Q258.2 193.7 257.2 193.7L257.2 193.7Q255.8 193.7 254.8 194.3Q253.9 194.9 253.9 195.9L253.9 195.9Q253.9 196.7 254.5 197.2Q255.1 197.8 256.6 198.1L256.6 198.1L260.6 198.9Q263.8 199.5 265.3 201.0Q266.9 202.4 266.9 204.8L266.9 204.8Q266.9 206.9 265.6 208.5Q264.4 210.2 262.2 211.1Q260.0 212.0 257.2 212.0L257.2 212.0Q252.8 212.0 250.3 210.2Q247.7 208.3 247.3 205.2L247.3 205.2L253.2 204.9Q253.5 206.2 254.5 206.9Q255.6 207.6 257.2 207.6L257.2 207.6Q258.8 207.6 259.7 207.0Q260.7 206.4 260.7 205.4L260.7 205.4Q260.7 204.6 260.0 204.0Q259.4 203.5 257.9 203.2L257.9 203.2L254.2 202.5Q251.0 201.8 249.4 200.3Q247.8 198.7 247.8 196.2L247.8 196.2Q247.8 194.1 249.0 192.6Q250.1 191.1 252.2 190.3Q254.3 189.4 257.1 189.4L257.1 189.4Q261.2 189.4 263.6 191.2Q266.0 192.9 266.4 195.9ZM268.8 189.7L282.0 189.7L282.0 194.3L268.8 194.3L268.8 189.7ZM271.8 205.6L271.8 184.5L277.9 184.5L277.9 204.8Q277.9 205.7 278.1 206.1Q278.4 206.6 278.9 206.8Q279.3 207.0 279.9 207.0L279.9 207.0Q280.4 207.0 280.8 206.9Q281.2 206.8 281.4 206.8L281.4 206.8L282.4 211.3Q281.9 211.4 281.1 211.6Q280.3 211.8 279.1 211.8L279.1 211.8Q276.9 211.9 275.3 211.3Q273.6 210.6 272.7 209.2Q271.8 207.8 271.8 205.6L271.8 205.6Z M301.5 219.7L301.5 219.7Q300.3 219.7 299.3 219.5Q298.3 219.4 297.7 219.1L297.7 219.1L299.0 214.6Q300.1 214.9 301.0 214.9Q301.8 215.0 302.4 214.5Q303.1 214.1 303.5 213.1L303.5 213.1L303.8 212.2L296.0 189.7L302.4 189.7L306.9 205.8L307.1 205.8L311.7 189.7L318.1 189.7L309.6 213.9Q309.0 215.7 307.9 217.0Q306.9 218.3 305.3 219.0Q303.7 219.7 301.5 219.7ZM330.0 212.0L330.0 212.0Q326.7 212.0 324.3 210.6Q321.9 209.1 320.6 206.6Q319.3 204.1 319.3 200.7L319.3 200.7Q319.3 197.3 320.6 194.8Q321.9 192.3 324.3 190.9Q326.7 189.4 330.0 189.4L330.0 189.4Q333.3 189.4 335.7 190.9Q338.1 192.3 339.4 194.8Q340.7 197.3 340.7 200.7L340.7 200.7Q340.7 204.1 339.4 206.6Q338.1 209.1 335.7 210.6Q333.3 212.0 330.0 212.0ZM330.0 207.3L330.0 207.3Q331.5 207.3 332.5 206.4Q333.5 205.6 334.1 204.1Q334.6 202.6 334.6 200.7L334.6 200.7Q334.6 198.8 334.1 197.3Q333.5 195.8 332.5 194.9Q331.5 194.1 330.0 194.1L330.0 194.1Q328.5 194.1 327.5 194.9Q326.4 195.8 325.9 197.3Q325.4 198.8 325.4 200.7L325.4 200.7Q325.4 202.6 325.9 204.1Q326.4 205.6 327.5 206.4Q328.5 207.3 330.0 207.3ZM358.4 202.3L358.4 202.3L358.4 189.7L364.4 189.7L364.4 211.5L358.6 211.5L358.6 207.6L358.4 207.6Q357.6 209.5 355.9 210.7Q354.2 211.8 351.7 211.8L351.7 211.8Q349.6 211.8 347.9 210.8Q346.2 209.8 345.3 208.0Q344.4 206.2 344.4 203.6L344.4 203.6L344.4 189.7L350.4 189.7L350.4 202.5Q350.4 204.5 351.4 205.6Q352.5 206.7 354.2 206.7L354.2 206.7Q355.3 206.7 356.2 206.2Q357.2 205.7 357.8 204.7Q358.4 203.7 358.4 202.3ZM375.0 211.5L368.9 211.5L368.9 189.7L374.8 189.7L374.8 193.5L375.0 193.5Q375.6 191.5 377.0 190.5Q378.4 189.4 380.2 189.4L380.2 189.4Q380.7 189.4 381.2 189.5Q381.8 189.5 382.2 189.6L382.2 189.6L382.2 195.0Q381.7 194.9 381.0 194.8Q380.2 194.7 379.6 194.7L379.6 194.7Q378.3 194.7 377.2 195.2Q376.2 195.8 375.6 196.8Q375.0 197.9 375.0 199.2L375.0 199.2L375.0 211.5Z M400.7 211.5L394.7 211.5L394.7 182.5L400.8 182.5L400.8 193.4L401.0 193.4Q401.4 192.5 402.1 191.6Q402.9 190.7 404.1 190.1Q405.3 189.4 407.2 189.4L407.2 189.4Q409.6 189.4 411.6 190.7Q413.6 191.9 414.8 194.4Q416.0 196.9 416.0 200.7L416.0 200.7Q416.0 204.3 414.8 206.8Q413.7 209.3 411.7 210.6Q409.6 211.9 407.2 211.9L407.2 211.9Q405.4 211.9 404.2 211.3Q402.9 210.7 402.2 209.8Q401.4 209.0 401.0 208.1L401.0 208.1L400.7 208.1L400.7 211.5ZM400.7 200.6L400.7 200.6Q400.7 202.6 401.2 204.0Q401.7 205.5 402.8 206.3Q403.8 207.1 405.2 207.1L405.2 207.1Q406.7 207.1 407.7 206.3Q408.8 205.5 409.3 204.0Q409.8 202.5 409.8 200.6L409.8 200.6Q409.8 198.7 409.3 197.3Q408.8 195.9 407.8 195.1Q406.7 194.3 405.2 194.3L405.2 194.3Q403.8 194.3 402.8 195.0Q401.7 195.8 401.2 197.3Q400.7 198.7 400.7 200.6ZM425.8 211.5L419.7 211.5L419.7 189.7L425.6 189.7L425.6 193.5L425.8 193.5Q426.4 191.5 427.8 190.5Q429.2 189.4 431.0 189.4L431.0 189.4Q431.5 189.4 432.0 189.5Q432.6 189.5 433.0 189.6L433.0 189.6L433.0 195.0Q432.5 194.9 431.8 194.8Q431.0 194.7 430.4 194.7L430.4 194.7Q429.1 194.7 428.0 195.2Q427.0 195.8 426.4 196.8Q425.8 197.9 425.8 199.2L425.8 199.2L425.8 211.5ZM444.6 212.0L444.6 212.0Q441.3 212.0 438.9 210.6Q436.5 209.1 435.1 206.6Q433.8 204.1 433.8 200.7L433.8 200.7Q433.8 197.3 435.1 194.8Q436.5 192.3 438.9 190.9Q441.3 189.4 444.6 189.4L444.6 189.4Q447.9 189.4 450.3 190.9Q452.7 192.3 454.0 194.8Q455.3 197.3 455.3 200.7L455.3 200.7Q455.3 204.1 454.0 206.6Q452.7 209.1 450.3 210.6Q447.9 212.0 444.6 212.0ZM444.6 207.3L444.6 207.3Q446.1 207.3 447.1 206.4Q448.1 205.6 448.6 204.1Q449.2 202.6 449.2 200.7L449.2 200.7Q449.2 198.8 448.6 197.3Q448.1 195.8 447.1 194.9Q446.1 194.1 444.6 194.1L444.6 194.1Q443.1 194.1 442.1 194.9Q441.0 195.8 440.5 197.3Q440.0 198.8 440.0 200.7L440.0 200.7Q440.0 202.6 440.5 204.1Q441.0 205.6 442.1 206.4Q443.1 207.3 444.6 207.3ZM469.1 211.5L462.7 211.5L456.8 189.7L462.9 189.7L466.3 204.4L466.5 204.4L470.0 189.7L476.0 189.7L479.6 204.3L479.8 204.3L483.1 189.7L489.2 189.7L483.3 211.5L476.9 211.5L473.1 197.8L472.9 197.8L469.1 211.5ZM510.2 195.9L510.2 195.9L504.7 196.3Q504.6 195.6 504.1 195.0Q503.6 194.4 502.9 194.1Q502.1 193.7 501.1 193.7L501.1 193.7Q499.6 193.7 498.7 194.3Q497.7 194.9 497.7 195.9L497.7 195.9Q497.7 196.7 498.3 197.2Q499.0 197.8 500.5 198.1L500.5 198.1L504.4 198.9Q507.6 199.5 509.2 201.0Q510.7 202.4 510.7 204.8L510.7 204.8Q510.7 206.9 509.5 208.5Q508.2 210.2 506.0 211.1Q503.9 212.0 501.0 212.0L501.0 212.0Q496.7 212.0 494.1 210.2Q491.6 208.3 491.1 205.2L491.1 205.2L497.1 204.9Q497.3 206.2 498.4 206.9Q499.4 207.6 501.0 207.6L501.0 207.6Q502.6 207.6 503.6 207.0Q504.6 206.4 504.6 205.4L504.6 205.4Q504.6 204.6 503.9 204.0Q503.2 203.5 501.8 203.2L501.8 203.2L498.0 202.5Q494.8 201.8 493.3 200.3Q491.7 198.7 491.7 196.2L491.7 196.2Q491.7 194.1 492.9 192.6Q494.0 191.1 496.1 190.3Q498.2 189.4 501.0 189.4L501.0 189.4Q505.1 189.4 507.5 191.2Q509.8 192.9 510.2 195.9ZM524.2 212.0L524.2 212.0Q520.8 212.0 518.4 210.6Q516.0 209.2 514.7 206.7Q513.4 204.2 513.4 200.7L513.4 200.7Q513.4 197.4 514.7 194.8Q516.0 192.3 518.4 190.9Q520.7 189.4 523.9 189.4L523.9 189.4Q526.1 189.4 528.0 190.1Q529.8 190.8 531.2 192.2Q532.6 193.6 533.4 195.7Q534.2 197.7 534.2 200.5L534.2 200.5L534.2 202.2L515.8 202.2L515.8 198.4L528.5 198.4Q528.5 197.1 527.9 196.1Q527.4 195.1 526.4 194.5Q525.4 194.0 524.0 194.0L524.0 194.0Q522.7 194.0 521.6 194.6Q520.5 195.2 520.0 196.3Q519.4 197.3 519.3 198.6L519.3 198.6L519.3 202.2Q519.3 203.8 519.9 205.0Q520.5 206.2 521.7 206.8Q522.8 207.5 524.3 207.5L524.3 207.5Q525.3 207.5 526.1 207.2Q527.0 206.9 527.6 206.3Q528.2 205.8 528.5 204.9L528.5 204.9L534.1 205.3Q533.6 207.3 532.3 208.8Q531.0 210.3 529.0 211.1Q526.9 212.0 524.2 212.0ZM543.9 211.5L537.8 211.5L537.8 189.7L543.7 189.7L543.7 193.5L543.9 193.5Q544.5 191.5 545.9 190.5Q547.3 189.4 549.2 189.4L549.2 189.4Q549.6 189.4 550.1 189.5Q550.7 189.5 551.1 189.6L551.1 189.6L551.1 195.0Q550.6 194.9 549.9 194.8Q549.1 194.7 548.5 194.7L548.5 194.7Q547.2 194.7 546.1 195.2Q545.1 195.8 544.5 196.8Q543.9 197.9 543.9 199.2L543.9 199.2L543.9 211.5ZM554.9 211.9L554.9 211.9Q553.5 211.9 552.5 210.9Q551.5 209.9 551.5 208.5L551.5 208.5Q551.5 207.1 552.5 206.1Q553.5 205.1 554.9 205.1L554.9 205.1Q556.3 205.1 557.3 206.1Q558.3 207.1 558.3 208.5L558.3 208.5Q558.3 209.4 557.8 210.2Q557.4 211.0 556.6 211.5Q555.8 211.9 554.9 211.9Z "/></svg>